<svg width="1200" height="600" xmlns="http://www.w3.org/2000/svg" style="background-color: #0d1117;">
<defs>
<filter id="glow" x="-20%" y="-20%" width="140%" height="140%">
<feGaussianBlur stdDeviation="2" result="blur" />
<feComposite in="SourceGraphic" in2="blur" operator="over" />
</filter>
</defs>
<path d="M496.07695154586736,320.0 L513.3969515458674,330.0 L496.07695154586736,340.0 L478.75695154586737,330.0 Z" fill="#FF6B6B" fill-opacity="0.8" stroke="#0d1117" stroke-width="1"/>
<path d="M496.07695154586736,340.0 L513.3969515458674,330.0 L513.3969515458674,350.0 L496.07695154586736,360.0 Z" fill="#FF6B6B" fill-opacity="0.6400000000000001" stroke="#0d1117" stroke-width="1"/>
<path d="M478.75695154586737,330.0 L496.07695154586736,340.0 L496.07695154586736,360.0 L478.75695154586737,350.0 Z" fill="#FF6B6B" fill-opacity="0.48" stroke="#0d1117" stroke-width="1"/>
<path d="M530.717967697245,340.0 L548.037967697245,350.0 L530.717967697245,360.0 L513.3979676972449,350.0 Z" fill="#FF6B6B" fill-opacity="0.8" stroke="#0d1117" stroke-width="1"/>
<path d="M530.717967697245,360.0 L548.037967697245,350.0 L548.037967697245,370.0 L530.717967697245,380.0 Z" fill="#FF6B6B" fill-opacity="0.6400000000000001" stroke="#0d1117" stroke-width="1"/>
<path d="M513.3979676972449,350.0 L530.717967697245,360.0 L530.717967697245,380.0 L513.3979676972449,370.0 Z" fill="#FF6B6B" fill-opacity="0.48" stroke="#0d1117" stroke-width="1"/>
<path d="M565.3589838486224,360.0 L582.6789838486225,370.0 L565.3589838486224,380.0 L548.0389838486224,370.0 Z" fill="#FF6B6B" fill-opacity="0.8" stroke="#0d1117" stroke-width="1"/>
<path d="M565.3589838486224,380.0 L582.6789838486225,370.0 L582.6789838486225,390.0 L565.3589838486224,400.0 Z" fill="#FF6B6B" fill-opacity="0.6400000000000001" stroke="#0d1117" stroke-width="1"/>
<path d="M548.0389838486224,370.0 L565.3589838486224,380.0 L565.3589838486224,400.0 L548.0389838486224,390.0 Z" fill="#FF6B6B" fill-opacity="0.48" stroke="#0d1117" stroke-width="1"/>
<path d="M600.0,380.0 L617.32,390.0 L600.0,400.0 L582.68,390.0 Z" fill="#FF6B6B" fill-opacity="0.8" stroke="#0d1117" stroke-width="1"/>
<path d="M600.0,400.0 L617.32,390.0 L617.32,410.0 L600.0,420.0 Z" fill="#FF6B6B" fill-opacity="0.6400000000000001" stroke="#0d1117" stroke-width="1"/>
<path d="M582.68,390.0 L600.0,400.0 L600.0,420.0 L582.68,410.0 Z" fill="#FF6B6B" fill-opacity="0.48" stroke="#0d1117" stroke-width="1"/>
<text x="600.0" y="370.0" text-anchor="middle" font-family="monospace" font-size="10" fill="#c9d1d9">Token</text>
<path d="M634.6410161513776,400.0 L651.9610161513776,410.0 L634.6410161513776,420.0 L617.3210161513775,410.0 Z" fill="#FF6B6B" fill-opacity="0.8" stroke="#0d1117" stroke-width="1"/>
<path d="M634.6410161513776,420.0 L651.9610161513776,410.0 L651.9610161513776,430.0 L634.6410161513776,440.0 Z" fill="#FF6B6B" fill-opacity="0.6400000000000001" stroke="#0d1117" stroke-width="1"/>
<path d="M617.3210161513775,410.0 L634.6410161513776,420.0 L634.6410161513776,440.0 L617.3210161513775,430.0 Z" fill="#FF6B6B" fill-opacity="0.48" stroke="#0d1117" stroke-width="1"/>
<path d="M669.282032302755,420.0 L686.6020323027551,430.0 L669.282032302755,440.0 L651.962032302755,430.0 Z" fill="#FF6B6B" fill-opacity="0.8" stroke="#0d1117" stroke-width="1"/>
<path d="M669.282032302755,440.0 L686.6020323027551,430.0 L686.6020323027551,450.0 L669.282032302755,460.0 Z" fill="#FF6B6B" fill-opacity="0.6400000000000001" stroke="#0d1117" stroke-width="1"/>
<path d="M651.962032302755,430.0 L669.282032302755,440.0 L669.282032302755,460.0 L651.962032302755,450.0 Z" fill="#FF6B6B" fill-opacity="0.48" stroke="#0d1117" stroke-width="1"/>
<path d="M703.9230484541326,440.0 L721.2430484541327,450.0 L703.9230484541326,460.0 L686.6030484541326,450.0 Z" fill="#FF6B6B" fill-opacity="0.8" stroke="#0d1117" stroke-width="1"/>
<path d="M703.9230484541326,460.0 L721.2430484541327,450.0 L721.2430484541327,470.0 L703.9230484541326,480.0 Z" fill="#FF6B6B" fill-opacity="0.6400000000000001" stroke="#0d1117" stroke-width="1"/>
<path d="M686.6030484541326,450.0 L703.9230484541326,460.0 L703.9230484541326,480.0 L686.6030484541326,470.0 Z" fill="#FF6B6B" fill-opacity="0.48" stroke="#0d1117" stroke-width="1"/>
<path d="M600.0,180.0 L617.32,190.0 L600.0,200.0 L582.68,190.0 Z" fill="#FFE66D" fill-opacity="0.6" stroke="#0d1117" stroke-width="1"/>
<path d="M600.0,200.0 L617.32,190.0 L617.32,210.0 L600.0,220.0 Z" fill="#FFE66D" fill-opacity="0.48" stroke="#0d1117" stroke-width="1"/>
<path d="M582.68,190.0 L600.0,200.0 L600.0,220.0 L582.68,210.0 Z" fill="#FFE66D" fill-opacity="0.36" stroke="#0d1117" stroke-width="1"/>
<path d="M565.3589838486224,200.0 L582.6789838486225,210.0 L565.3589838486224,220.0 L548.0389838486224,210.0 Z" fill="#FFE66D" fill-opacity="0.6" stroke="#0d1117" stroke-width="1"/>
<path d="M565.3589838486224,220.0 L582.6789838486225,210.0 L582.6789838486225,230.0 L565.3589838486224,240.0 Z" fill="#FFE66D" fill-opacity="0.48" stroke="#0d1117" stroke-width="1"/>
<path d="M548.0389838486224,210.0 L565.3589838486224,220.0 L565.3589838486224,240.0 L548.0389838486224,230.0 Z" fill="#FFE66D" fill-opacity="0.36" stroke="#0d1117" stroke-width="1"/>
<path d="M530.717967697245,220.0 L548.037967697245,230.0 L530.717967697245,240.0 L513.3979676972449,230.0 Z" fill="#FFE66D" fill-opacity="0.6" stroke="#0d1117" stroke-width="1"/>
<path d="M530.717967697245,240.0 L548.037967697245,230.0 L548.037967697245,250.0 L530.717967697245,260.0 Z" fill="#FFE66D" fill-opacity="0.48" stroke="#0d1117" stroke-width="1"/>
<path d="M513.3979676972449,230.0 L530.717967697245,240.0 L530.717967697245,260.0 L513.3979676972449,250.0 Z" fill="#FFE66D" fill-opacity="0.36" stroke="#0d1117" stroke-width="1"/>
<path d="M496.07695154586736,240.0 L513.3969515458674,250.0 L496.07695154586736,260.0 L478.75695154586737,250.0 Z" fill="#FFE66D" fill-opacity="0.6" stroke="#0d1117" stroke-width="1"/>
<path d="M496.07695154586736,260.0 L513.3969515458674,250.0 L513.3969515458674,270.0 L496.07695154586736,280.0 Z" fill="#FFE66D" fill-opacity="0.48" stroke="#0d1117" stroke-width="1"/>
<path d="M478.75695154586737,250.0 L496.07695154586736,260.0 L496.07695154586736,280.0 L478.75695154586737,270.0 Z" fill="#FFE66D" fill-opacity="0.36" stroke="#0d1117" stroke-width="1"/>
<path d="M461.4359353944898,260.0 L478.75593539448977,270.0 L461.4359353944898,280.0 L444.1159353944898,270.0 Z" fill="#FFE66D" fill-opacity="0.6" stroke="#0d1117" stroke-width="1"/>
<path d="M461.4359353944898,280.0 L478.75593539448977,270.0 L478.75593539448977,290.0 L461.4359353944898,300.0 Z" fill="#FFE66D" fill-opacity="0.48" stroke="#0d1117" stroke-width="1"/>
<path d="M444.1159353944898,270.0 L461.4359353944898,280.0 L461.4359353944898,300.0 L444.1159353944898,290.0 Z" fill="#FFE66D" fill-opacity="0.36" stroke="#0d1117" stroke-width="1"/>
<path d="M634.6410161513776,200.0 L651.9610161513776,210.0 L634.6410161513776,220.0 L617.3210161513775,210.0 Z" fill="#FFE66D" fill-opacity="0.6" stroke="#0d1117" stroke-width="1"/>
<path d="M634.6410161513776,220.0 L651.9610161513776,210.0 L651.9610161513776,230.0 L634.6410161513776,240.0 Z" fill="#FFE66D" fill-opacity="0.48" stroke="#0d1117" stroke-width="1"/>
<path d="M617.3210161513775,210.0 L634.6410161513776,220.0 L634.6410161513776,240.0 L617.3210161513775,230.0 Z" fill="#FFE66D" fill-opacity="0.36" stroke="#0d1117" stroke-width="1"/>
<path d="M600.0,220.0 L617.32,230.0 L600.0,240.0 L582.68,230.0 Z" fill="#FFE66D" fill-opacity="0.6" stroke="#0d1117" stroke-width="1"/>
<path d="M600.0,240.0 L617.32,230.0 L617.32,250.0 L600.0,260.0 Z" fill="#FFE66D" fill-opacity="0.48" stroke="#0d1117" stroke-width="1"/>
<path d="M582.68,230.0 L600.0,240.0 L600.0,260.0 L582.68,250.0 Z" fill="#FFE66D" fill-opacity="0.36" stroke="#0d1117" stroke-width="1"/>
<path d="M565.3589838486224,240.0 L582.6789838486225,250.0 L565.3589838486224,260.0 L548.0389838486224,250.0 Z" fill="#FFE66D" fill-opacity="0.6" stroke="#0d1117" stroke-width="1"/>
<path d="M565.3589838486224,260.0 L582.6789838486225,250.0 L582.6789838486225,270.0 L565.3589838486224,280.0 Z" fill="#FFE66D" fill-opacity="0.48" stroke="#0d1117" stroke-width="1"/>
<path d="M548.0389838486224,250.0 L565.3589838486224,260.0 L565.3589838486224,280.0 L548.0389838486224,270.0 Z" fill="#FFE66D" fill-opacity="0.36" stroke="#0d1117" stroke-width="1"/>
<path d="M530.717967697245,260.0 L548.037967697245,270.0 L530.717967697245,280.0 L513.3979676972449,270.0 Z" fill="#FFE66D" fill-opacity="0.6" stroke="#0d1117" stroke-width="1"/>
<path d="M530.717967697245,280.0 L548.037967697245,270.0 L548.037967697245,290.0 L530.717967697245,300.0 Z" fill="#FFE66D" fill-opacity="0.48" stroke="#0d1117" stroke-width="1"/>
<path d="M513.3979676972449,270.0 L530.717967697245,280.0 L530.717967697245,300.0 L513.3979676972449,290.0 Z" fill="#FFE66D" fill-opacity="0.36" stroke="#0d1117" stroke-width="1"/>
<path d="M496.07695154586736,280.0 L513.3969515458674,290.0 L496.07695154586736,300.0 L478.75695154586737,290.0 Z" fill="#FFE66D" fill-opacity="0.6" stroke="#0d1117" stroke-width="1"/>
<path d="M496.07695154586736,300.0 L513.3969515458674,290.0 L513.3969515458674,310.0 L496.07695154586736,320.0 Z" fill="#FFE66D" fill-opacity="0.48" stroke="#0d1117" stroke-width="1"/>
<path d="M478.75695154586737,290.0 L496.07695154586736,300.0 L496.07695154586736,320.0 L478.75695154586737,310.0 Z" fill="#FFE66D" fill-opacity="0.36" stroke="#0d1117" stroke-width="1"/>
<path d="M669.282032302755,220.0 L686.6020323027551,230.0 L669.282032302755,240.0 L651.962032302755,230.0 Z" fill="#FFE66D" fill-opacity="0.6" stroke="#0d1117" stroke-width="1"/>
<path d="M669.282032302755,240.0 L686.6020323027551,230.0 L686.6020323027551,250.0 L669.282032302755,260.0 Z" fill="#FFE66D" fill-opacity="0.48" stroke="#0d1117" stroke-width="1"/>
<path d="M651.962032302755,230.0 L669.282032302755,240.0 L669.282032302755,260.0 L651.962032302755,250.0 Z" fill="#FFE66D" fill-opacity="0.36" stroke="#0d1117" stroke-width="1"/>
<path d="M634.6410161513776,240.0 L651.9610161513776,250.0 L634.6410161513776,260.0 L617.3210161513775,250.0 Z" fill="#FFE66D" fill-opacity="0.6" stroke="#0d1117" stroke-width="1"/>
<path d="M634.6410161513776,260.0 L651.9610161513776,250.0 L651.9610161513776,270.0 L634.6410161513776,280.0 Z" fill="#FFE66D" fill-opacity="0.48" stroke="#0d1117" stroke-width="1"/>
<path d="M617.3210161513775,250.0 L634.6410161513776,260.0 L634.6410161513776,280.0 L617.3210161513775,270.0 Z" fill="#FFE66D" fill-opacity="0.36" stroke="#0d1117" stroke-width="1"/>
<path d="M600.0,260.0 L617.32,270.0 L600.0,280.0 L582.68,270.0 Z" fill="#FFE66D" fill-opacity="0.6" stroke="#0d1117" stroke-width="1"/>
<path d="M600.0,280.0 L617.32,270.0 L617.32,290.0 L600.0,300.0 Z" fill="#FFE66D" fill-opacity="0.48" stroke="#0d1117" stroke-width="1"/>
<path d="M582.68,270.0 L600.0,280.0 L600.0,300.0 L582.68,290.0 Z" fill="#FFE66D" fill-opacity="0.36" stroke="#0d1117" stroke-width="1"/>
<path d="M565.3589838486224,280.0 L582.6789838486225,290.0 L565.3589838486224,300.0 L548.0389838486224,290.0 Z" fill="#FFE66D" fill-opacity="0.6" stroke="#0d1117" stroke-width="1"/>
<path d="M565.3589838486224,300.0 L582.6789838486225,290.0 L582.6789838486225,310.0 L565.3589838486224,320.0 Z" fill="#FFE66D" fill-opacity="0.48" stroke="#0d1117" stroke-width="1"/>
<path d="M548.0389838486224,290.0 L565.3589838486224,300.0 L565.3589838486224,320.0 L548.0389838486224,310.0 Z" fill="#FFE66D" fill-opacity="0.36" stroke="#0d1117" stroke-width="1"/>
<path d="M530.717967697245,300.0 L548.037967697245,310.0 L530.717967697245,320.0 L513.3979676972449,310.0 Z" fill="#FFE66D" fill-opacity="0.6" stroke="#0d1117" stroke-width="1"/>
<path d="M530.717967697245,320.0 L548.037967697245,310.0 L548.037967697245,330.0 L530.717967697245,340.0 Z" fill="#FFE66D" fill-opacity="0.48" stroke="#0d1117" stroke-width="1"/>
<path d="M513.3979676972449,310.0 L530.717967697245,320.0 L530.717967697245,340.0 L513.3979676972449,330.0 Z" fill="#FFE66D" fill-opacity="0.36" stroke="#0d1117" stroke-width="1"/>
<path d="M703.9230484541326,240.0 L721.2430484541327,250.0 L703.9230484541326,260.0 L686.6030484541326,250.0 Z" fill="#FFE66D" fill-opacity="0.6" stroke="#0d1117" stroke-width="1"/>
<path d="M703.9230484541326,260.0 L721.2430484541327,250.0 L721.2430484541327,270.0 L703.9230484541326,280.0 Z" fill="#FFE66D" fill-opacity="0.48" stroke="#0d1117" stroke-width="1"/>
<path d="M686.6030484541326,250.0 L703.9230484541326,260.0 L703.9230484541326,280.0 L686.6030484541326,270.0 Z" fill="#FFE66D" fill-opacity="0.36" stroke="#0d1117" stroke-width="1"/>
<path d="M669.282032302755,260.0 L686.6020323027551,270.0 L669.282032302755,280.0 L651.962032302755,270.0 Z" fill="#FFE66D" fill-opacity="0.6" stroke="#0d1117" stroke-width="1"/>
<path d="M669.282032302755,280.0 L686.6020323027551,270.0 L686.6020323027551,290.0 L669.282032302755,300.0 Z" fill="#FFE66D" fill-opacity="0.48" stroke="#0d1117" stroke-width="1"/>
<path d="M651.962032302755,270.0 L669.282032302755,280.0 L669.282032302755,300.0 L651.962032302755,290.0 Z" fill="#FFE66D" fill-opacity="0.36" stroke="#0d1117" stroke-width="1"/>
<path d="M634.6410161513776,280.0 L651.9610161513776,290.0 L634.6410161513776,300.0 L617.3210161513775,290.0 Z" fill="#FFE66D" fill-opacity="0.6" stroke="#0d1117" stroke-width="1"/>
<path d="M634.6410161513776,300.0 L651.9610161513776,290.0 L651.9610161513776,310.0 L634.6410161513776,320.0 Z" fill="#FFE66D" fill-opacity="0.48" stroke="#0d1117" stroke-width="1"/>
<path d="M617.3210161513775,290.0 L634.6410161513776,300.0 L634.6410161513776,320.0 L617.3210161513775,310.0 Z" fill="#FFE66D" fill-opacity="0.36" stroke="#0d1117" stroke-width="1"/>
<path d="M600.0,300.0 L617.32,310.0 L600.0,320.0 L582.68,310.0 Z" fill="#FFE66D" fill-opacity="0.6" stroke="#0d1117" stroke-width="1"/>
<path d="M600.0,320.0 L617.32,310.0 L617.32,330.0 L600.0,340.0 Z" fill="#FFE66D" fill-opacity="0.48" stroke="#0d1117" stroke-width="1"/>
<path d="M582.68,310.0 L600.0,320.0 L600.0,340.0 L582.68,330.0 Z" fill="#FFE66D" fill-opacity="0.36" stroke="#0d1117" stroke-width="1"/>
<path d="M565.3589838486224,320.0 L582.6789838486225,330.0 L565.3589838486224,340.0 L548.0389838486224,330.0 Z" fill="#FFE66D" fill-opacity="0.6" stroke="#0d1117" stroke-width="1"/>
<path d="M565.3589838486224,340.0 L582.6789838486225,330.0 L582.6789838486225,350.0 L565.3589838486224,360.0 Z" fill="#FFE66D" fill-opacity="0.48" stroke="#0d1117" stroke-width="1"/>
<path d="M548.0389838486224,330.0 L565.3589838486224,340.0 L565.3589838486224,360.0 L548.0389838486224,350.0 Z" fill="#FFE66D" fill-opacity="0.36" stroke="#0d1117" stroke-width="1"/>
<path d="M738.5640646055102,260.0 L755.8840646055103,270.0 L738.5640646055102,280.0 L721.2440646055102,270.0 Z" fill="#FFE66D" fill-opacity="0.6" stroke="#0d1117" stroke-width="1"/>
<path d="M738.5640646055102,280.0 L755.8840646055103,270.0 L755.8840646055103,290.0 L738.5640646055102,300.0 Z" fill="#FFE66D" fill-opacity="0.48" stroke="#0d1117" stroke-width="1"/>
<path d="M721.2440646055102,270.0 L738.5640646055102,280.0 L738.5640646055102,300.0 L721.2440646055102,290.0 Z" fill="#FFE66D" fill-opacity="0.36" stroke="#0d1117" stroke-width="1"/>
<path d="M703.9230484541326,280.0 L721.2430484541327,290.0 L703.9230484541326,300.0 L686.6030484541326,290.0 Z" fill="#FFE66D" fill-opacity="0.6" stroke="#0d1117" stroke-width="1"/>
<path d="M703.9230484541326,300.0 L721.2430484541327,290.0 L721.2430484541327,310.0 L703.9230484541326,320.0 Z" fill="#FFE66D" fill-opacity="0.48" stroke="#0d1117" stroke-width="1"/>
<path d="M686.6030484541326,290.0 L703.9230484541326,300.0 L703.9230484541326,320.0 L686.6030484541326,310.0 Z" fill="#FFE66D" fill-opacity="0.36" stroke="#0d1117" stroke-width="1"/>
<path d="M669.282032302755,300.0 L686.6020323027551,310.0 L669.282032302755,320.0 L651.962032302755,310.0 Z" fill="#FFE66D" fill-opacity="0.6" stroke="#0d1117" stroke-width="1"/>
<path d="M669.282032302755,320.0 L686.6020323027551,310.0 L686.6020323027551,330.0 L669.282032302755,340.0 Z" fill="#FFE66D" fill-opacity="0.48" stroke="#0d1117" stroke-width="1"/>
<path d="M651.962032302755,310.0 L669.282032302755,320.0 L669.282032302755,340.0 L651.962032302755,330.0 Z" fill="#FFE66D" fill-opacity="0.36" stroke="#0d1117" stroke-width="1"/>
<path d="M634.6410161513776,320.0 L651.9610161513776,330.0 L634.6410161513776,340.0 L617.3210161513775,330.0 Z" fill="#FFE66D" fill-opacity="0.6" stroke="#0d1117" stroke-width="1"/>
<path d="M634.6410161513776,340.0 L651.9610161513776,330.0 L651.9610161513776,350.0 L634.6410161513776,360.0 Z" fill="#FFE66D" fill-opacity="0.48" stroke="#0d1117" stroke-width="1"/>
<path d="M617.3210161513775,330.0 L634.6410161513776,340.0 L634.6410161513776,360.0 L617.3210161513775,350.0 Z" fill="#FFE66D" fill-opacity="0.36" stroke="#0d1117" stroke-width="1"/>
<path d="M600.0,340.0 L617.32,350.0 L600.0,360.0 L582.68,350.0 Z" fill="#FFE66D" fill-opacity="0.6" stroke="#0d1117" stroke-width="1"/>
<path d="M600.0,360.0 L617.32,350.0 L617.32,370.0 L600.0,380.0 Z" fill="#FFE66D" fill-opacity="0.48" stroke="#0d1117" stroke-width="1"/>
<path d="M582.68,350.0 L600.0,360.0 L600.0,380.0 L582.68,370.0 Z" fill="#FFE66D" fill-opacity="0.36" stroke="#0d1117" stroke-width="1"/>
<path d="M496.07695154586736,80.0 L513.3969515458674,90.0 L496.07695154586736,100.0 L478.75695154586737,90.0 Z" fill="#4ECDC4" fill-opacity="0.8" stroke="#0d1117" stroke-width="1"/>
<path d="M496.07695154586736,100.0 L513.3969515458674,90.0 L513.3969515458674,110.0 L496.07695154586736,120.0 Z" fill="#4ECDC4" fill-opacity="0.6400000000000001" stroke="#0d1117" stroke-width="1"/>
<path d="M478.75695154586737,90.0 L496.07695154586736,100.0 L496.07695154586736,120.0 L478.75695154586737,110.0 Z" fill="#4ECDC4" fill-opacity="0.48" stroke="#0d1117" stroke-width="1"/>
<path d="M530.717967697245,100.0 L548.037967697245,110.0 L530.717967697245,120.0 L513.3979676972449,110.0 Z" fill="#4ECDC4" fill-opacity="0.8" stroke="#0d1117" stroke-width="1"/>
<path d="M530.717967697245,120.0 L548.037967697245,110.0 L548.037967697245,130.0 L530.717967697245,140.0 Z" fill="#4ECDC4" fill-opacity="0.6400000000000001" stroke="#0d1117" stroke-width="1"/>
<path d="M513.3979676972449,110.0 L530.717967697245,120.0 L530.717967697245,140.0 L513.3979676972449,130.0 Z" fill="#4ECDC4" fill-opacity="0.48" stroke="#0d1117" stroke-width="1"/>
<path d="M565.3589838486224,120.0 L582.6789838486225,130.0 L565.3589838486224,140.0 L548.0389838486224,130.0 Z" fill="#4ECDC4" fill-opacity="0.8" stroke="#0d1117" stroke-width="1"/>
<path d="M565.3589838486224,140.0 L582.6789838486225,130.0 L582.6789838486225,150.0 L565.3589838486224,160.0 Z" fill="#4ECDC4" fill-opacity="0.6400000000000001" stroke="#0d1117" stroke-width="1"/>
<path d="M548.0389838486224,130.0 L565.3589838486224,140.0 L565.3589838486224,160.0 L548.0389838486224,150.0 Z" fill="#4ECDC4" fill-opacity="0.48" stroke="#0d1117" stroke-width="1"/>
<path d="M600.0,140.0 L617.32,150.0 L600.0,160.0 L582.68,150.0 Z" fill="#4ECDC4" fill-opacity="0.8" stroke="#0d1117" stroke-width="1"/>
<path d="M600.0,160.0 L617.32,150.0 L617.32,170.0 L600.0,180.0 Z" fill="#4ECDC4" fill-opacity="0.6400000000000001" stroke="#0d1117" stroke-width="1"/>
<path d="M582.68,150.0 L600.0,160.0 L600.0,180.0 L582.68,170.0 Z" fill="#4ECDC4" fill-opacity="0.48" stroke="#0d1117" stroke-width="1"/>
<path d="M634.6410161513776,160.0 L651.9610161513776,170.0 L634.6410161513776,180.0 L617.3210161513775,170.0 Z" fill="#4ECDC4" fill-opacity="0.8" stroke="#0d1117" stroke-width="1"/>
<path d="M634.6410161513776,180.0 L651.9610161513776,170.0 L651.9610161513776,190.0 L634.6410161513776,200.0 Z" fill="#4ECDC4" fill-opacity="0.6400000000000001" stroke="#0d1117" stroke-width="1"/>
<path d="M617.3210161513775,170.0 L634.6410161513776,180.0 L634.6410161513776,200.0 L617.3210161513775,190.0 Z" fill="#4ECDC4" fill-opacity="0.48" stroke="#0d1117" stroke-width="1"/>
<path d="M669.282032302755,180.0 L686.6020323027551,190.0 L669.282032302755,200.0 L651.962032302755,190.0 Z" fill="#4ECDC4" fill-opacity="0.8" stroke="#0d1117" stroke-width="1"/>
<path d="M669.282032302755,200.0 L686.6020323027551,190.0 L686.6020323027551,210.0 L669.282032302755,220.0 Z" fill="#4ECDC4" fill-opacity="0.6400000000000001" stroke="#0d1117" stroke-width="1"/>
<path d="M651.962032302755,190.0 L669.282032302755,200.0 L669.282032302755,220.0 L651.962032302755,210.0 Z" fill="#4ECDC4" fill-opacity="0.48" stroke="#0d1117" stroke-width="1"/>
<path d="M703.9230484541326,200.0 L721.2430484541327,210.0 L703.9230484541326,220.0 L686.6030484541326,210.0 Z" fill="#4ECDC4" fill-opacity="0.8" stroke="#0d1117" stroke-width="1"/>
<path d="M703.9230484541326,220.0 L721.2430484541327,210.0 L721.2430484541327,230.0 L703.9230484541326,240.0 Z" fill="#4ECDC4" fill-opacity="0.6400000000000001" stroke="#0d1117" stroke-width="1"/>
<path d="M686.6030484541326,210.0 L703.9230484541326,220.0 L703.9230484541326,240.0 L686.6030484541326,230.0 Z" fill="#4ECDC4" fill-opacity="0.48" stroke="#0d1117" stroke-width="1"/>
<line x1="600.0" y1="400.0" x2="600.0" y2="280.0" stroke="#58a6ff" stroke-width="2" stroke-dasharray="5,5" opacity="0.5" />
<line x1="600.0" y1="280.0" x2="600.0" y2="160.0" stroke="#58a6ff" stroke-width="2" stroke-dasharray="5,5" opacity="0.5" />

    <text x="100" y="100" font-family="monospace" font-size="24" fill="#c9d1d9" font-weight="bold">MODEL: NJX-TRANSFORMER</text>
    <text x="100" y="130" font-family="monospace" font-size="14" fill="#58a6ff">> ARCHITECTURE: DECODER-ONLY</text>
    <text x="100" y="150" font-family="monospace" font-size="14" fill="#58a6ff">> PARAMETERS: INFINITE</text>
    
    <!-- Annotations -->
    <text x="1000" y="500" text-anchor="end" font-family="monospace" font-size="12" fill="#FF6B6B">INPUT: CURIOSITY</text>
    <text x="1000" y="520" text-anchor="end" font-family="monospace" font-size="12" fill="#4ECDC4">OUTPUT: INNOVATION</text>
    
</svg>