<svg width="1200" height="500" xmlns="http://www.w3.org/2000/svg" style="background-color: #0d1117;">
<defs>
<style>

            @keyframes flow {
                0% { stroke-dashoffset: 100; }
                100% { stroke-dashoffset: 0; }
            }
            @keyframes float {
                0% { transform: translateY(0px); }
                50% { transform: translateY(-5px); }
                100% { transform: translateY(0px); }
            }
            .node { transition: all 0.3s ease; }
            .connection { stroke-dasharray: 5; animation: flow 2s linear infinite; }
            .label-text { font-family: monospace; font-weight: bold; }
        
</style>
<filter id="glow" x="-20%" y="-20%" width="140%" height="140%">
<feGaussianBlur stdDeviation="3" result="blur" />
<feComposite in="SourceGraphic" in2="blur" operator="over" />
</filter>
</defs>
<g class="node" style="animation: float 3s ease-in-out infinite; animation-delay: -0.2s;"><path d="M236.26933041053576,337.0 L251.85733041053575,346.0 L236.26933041053576,355.0 L220.68133041053576,346.0 Z" fill="#FF6B6B" fill-opacity="0.9" stroke="#0d1117" stroke-width="1"/><path d="M236.26933041053576,355.0 L251.85733041053575,346.0 L251.85733041053575,364.0 L236.26933041053576,373.0 Z" fill="#FF6B6B" fill-opacity="0.7" stroke="#0d1117" stroke-width="1"/><path d="M220.68133041053576,346.0 L236.26933041053576,355.0 L236.26933041053576,373.0 L220.68133041053576,364.0 Z" fill="#FF6B6B" fill-opacity="0.5" stroke="#0d1117" stroke-width="1"/></g>
<g class="node" style="animation: float 3s ease-in-out infinite; animation-delay: -0.1s;"><path d="M266.5802195429911,354.5 L282.1682195429911,363.5 L266.5802195429911,372.5 L250.99221954299108,363.5 Z" fill="#FF6B6B" fill-opacity="0.9" stroke="#0d1117" stroke-width="1"/><path d="M266.5802195429911,372.5 L282.1682195429911,363.5 L282.1682195429911,381.5 L266.5802195429911,390.5 Z" fill="#FF6B6B" fill-opacity="0.7" stroke="#0d1117" stroke-width="1"/><path d="M250.99221954299108,363.5 L266.5802195429911,372.5 L266.5802195429911,390.5 L250.99221954299108,381.5 Z" fill="#FF6B6B" fill-opacity="0.5" stroke="#0d1117" stroke-width="1"/></g>
<g class="node" style="animation: float 3s ease-in-out infinite; animation-delay: 0.0s;"><path d="M296.89110867544645,372.0 L312.47910867544647,381.0 L296.89110867544645,390.0 L281.3031086754464,381.0 Z" fill="#FF6B6B" fill-opacity="0.9" stroke="#0d1117" stroke-width="1"/><path d="M296.89110867544645,390.0 L312.47910867544647,381.0 L312.47910867544647,399.0 L296.89110867544645,408.0 Z" fill="#FF6B6B" fill-opacity="0.7" stroke="#0d1117" stroke-width="1"/><path d="M281.3031086754464,381.0 L296.89110867544645,390.0 L296.89110867544645,408.0 L281.3031086754464,399.0 Z" fill="#FF6B6B" fill-opacity="0.5" stroke="#0d1117" stroke-width="1"/></g>
<g class="node" style="animation: float 3s ease-in-out infinite; animation-delay: 0.1s;"><path d="M327.2019978079018,389.5 L342.78999780790184,398.5 L327.2019978079018,407.5 L311.6139978079018,398.5 Z" fill="#FF6B6B" fill-opacity="0.9" stroke="#0d1117" stroke-width="1"/><path d="M327.2019978079018,407.5 L342.78999780790184,398.5 L342.78999780790184,416.5 L327.2019978079018,425.5 Z" fill="#FF6B6B" fill-opacity="0.7" stroke="#0d1117" stroke-width="1"/><path d="M311.6139978079018,398.5 L327.2019978079018,407.5 L327.2019978079018,425.5 L311.6139978079018,416.5 Z" fill="#FF6B6B" fill-opacity="0.5" stroke="#0d1117" stroke-width="1"/></g>
<g class="node" style="animation: float 3s ease-in-out infinite; animation-delay: 0.2s;"><path d="M357.51288694035713,407.0 L373.10088694035716,416.0 L357.51288694035713,425.0 L341.9248869403571,416.0 Z" fill="#FF6B6B" fill-opacity="0.9" stroke="#0d1117" stroke-width="1"/><path d="M357.51288694035713,425.0 L373.10088694035716,416.0 L373.10088694035716,434.0 L357.51288694035713,443.0 Z" fill="#FF6B6B" fill-opacity="0.7" stroke="#0d1117" stroke-width="1"/><path d="M341.9248869403571,416.0 L357.51288694035713,425.0 L357.51288694035713,443.0 L341.9248869403571,434.0 Z" fill="#FF6B6B" fill-opacity="0.5" stroke="#0d1117" stroke-width="1"/></g>
<text x="276.89110867544645" y="440.0" text-anchor="middle" class="label-text" font-size="12" fill="#FF6B6B">INPUT: DATA</text>
<g class="node" style="animation: float 3s ease-in-out infinite; animation-delay: -0.4s;"><path d="M600.0,162.0 L615.588,171.0 L600.0,180.0 L584.412,171.0 Z" fill="#4ECDC4" fill-opacity="0.9" stroke="#0d1117" stroke-width="1"/><path d="M600.0,180.0 L615.588,171.0 L615.588,189.0 L600.0,198.0 Z" fill="#4ECDC4" fill-opacity="0.7" stroke="#0d1117" stroke-width="1"/><path d="M584.412,171.0 L600.0,180.0 L600.0,198.0 L584.412,189.0 Z" fill="#4ECDC4" fill-opacity="0.5" stroke="#0d1117" stroke-width="1"/></g>
<g class="node" style="animation: float 3s ease-in-out infinite; animation-delay: -0.2s;"><path d="M539.3782217350893,197.0 L554.9662217350892,206.0 L539.3782217350893,215.0 L523.7902217350893,206.0 Z" fill="#4ECDC4" fill-opacity="0.9" stroke="#0d1117" stroke-width="1"/><path d="M539.3782217350893,215.0 L554.9662217350892,206.0 L554.9662217350892,224.0 L539.3782217350893,233.0 Z" fill="#4ECDC4" fill-opacity="0.7" stroke="#0d1117" stroke-width="1"/><path d="M523.7902217350893,206.0 L539.3782217350893,215.0 L539.3782217350893,233.0 L523.7902217350893,224.0 Z" fill="#4ECDC4" fill-opacity="0.5" stroke="#0d1117" stroke-width="1"/></g>
<g class="node" style="animation: float 3s ease-in-out infinite; animation-delay: 0.0s;"><path d="M478.75644347017857,232.0 L494.3444434701786,241.0 L478.75644347017857,250.0 L463.16844347017854,241.0 Z" fill="#4ECDC4" fill-opacity="0.9" stroke="#0d1117" stroke-width="1"/><path d="M478.75644347017857,250.0 L494.3444434701786,241.0 L494.3444434701786,259.0 L478.75644347017857,268.0 Z" fill="#4ECDC4" fill-opacity="0.7" stroke="#0d1117" stroke-width="1"/><path d="M463.16844347017854,241.0 L478.75644347017857,250.0 L478.75644347017857,268.0 L463.16844347017854,259.0 Z" fill="#4ECDC4" fill-opacity="0.5" stroke="#0d1117" stroke-width="1"/></g>
<g class="node" style="animation: float 3s ease-in-out infinite; animation-delay: -0.2s;"><path d="M600.0,197.0 L615.588,206.0 L600.0,215.0 L584.412,206.0 Z" fill="#4ECDC4" fill-opacity="0.9" stroke="#0d1117" stroke-width="1"/><path d="M600.0,215.0 L615.588,206.0 L615.588,224.0 L600.0,233.0 Z" fill="#4ECDC4" fill-opacity="0.7" stroke="#0d1117" stroke-width="1"/><path d="M584.412,206.0 L600.0,215.0 L600.0,233.0 L584.412,224.0 Z" fill="#4ECDC4" fill-opacity="0.5" stroke="#0d1117" stroke-width="1"/></g>
<g class="node" style="animation: float 3s ease-in-out infinite; animation-delay: 0.0s;"><path d="M539.3782217350893,232.0 L554.9662217350892,241.0 L539.3782217350893,250.0 L523.7902217350893,241.0 Z" fill="#4ECDC4" fill-opacity="0.9" stroke="#0d1117" stroke-width="1"/><path d="M539.3782217350893,250.0 L554.9662217350892,241.0 L554.9662217350892,259.0 L539.3782217350893,268.0 Z" fill="#4ECDC4" fill-opacity="0.7" stroke="#0d1117" stroke-width="1"/><path d="M523.7902217350893,241.0 L539.3782217350893,250.0 L539.3782217350893,268.0 L523.7902217350893,259.0 Z" fill="#4ECDC4" fill-opacity="0.5" stroke="#0d1117" stroke-width="1"/></g>
<g class="node" style="animation: float 3s ease-in-out infinite; animation-delay: -0.2s;"><path d="M660.6217782649107,197.0 L676.2097782649107,206.0 L660.6217782649107,215.0 L645.0337782649108,206.0 Z" fill="#4ECDC4" fill-opacity="0.9" stroke="#0d1117" stroke-width="1"/><path d="M660.6217782649107,215.0 L676.2097782649107,206.0 L676.2097782649107,224.0 L660.6217782649107,233.0 Z" fill="#4ECDC4" fill-opacity="0.7" stroke="#0d1117" stroke-width="1"/><path d="M645.0337782649108,206.0 L660.6217782649107,215.0 L660.6217782649107,233.0 L645.0337782649108,224.0 Z" fill="#4ECDC4" fill-opacity="0.5" stroke="#0d1117" stroke-width="1"/></g>
<g class="node" style="animation: float 3s ease-in-out infinite; animation-delay: 0.0s;"><path d="M600.0,232.0 L615.588,241.0 L600.0,250.0 L584.412,241.0 Z" fill="#4ECDC4" fill-opacity="0.9" stroke="#0d1117" stroke-width="1"/><path d="M600.0,250.0 L615.588,241.0 L615.588,259.0 L600.0,268.0 Z" fill="#4ECDC4" fill-opacity="0.7" stroke="#0d1117" stroke-width="1"/><path d="M584.412,241.0 L600.0,250.0 L600.0,268.0 L584.412,259.0 Z" fill="#4ECDC4" fill-opacity="0.5" stroke="#0d1117" stroke-width="1"/></g>
<g class="node" style="animation: float 3s ease-in-out infinite; animation-delay: 0.2s;"><path d="M539.3782217350893,267.0 L554.9662217350892,276.0 L539.3782217350893,285.0 L523.7902217350893,276.0 Z" fill="#4ECDC4" fill-opacity="0.9" stroke="#0d1117" stroke-width="1"/><path d="M539.3782217350893,285.0 L554.9662217350892,276.0 L554.9662217350892,294.0 L539.3782217350893,303.0 Z" fill="#4ECDC4" fill-opacity="0.7" stroke="#0d1117" stroke-width="1"/><path d="M523.7902217350893,276.0 L539.3782217350893,285.0 L539.3782217350893,303.0 L523.7902217350893,294.0 Z" fill="#4ECDC4" fill-opacity="0.5" stroke="#0d1117" stroke-width="1"/></g>
<g class="node" style="animation: float 3s ease-in-out infinite; animation-delay: 0.0s;"><path d="M660.6217782649107,232.0 L676.2097782649107,241.0 L660.6217782649107,250.0 L645.0337782649108,241.0 Z" fill="#4ECDC4" fill-opacity="0.9" stroke="#0d1117" stroke-width="1"/><path d="M660.6217782649107,250.0 L676.2097782649107,241.0 L676.2097782649107,259.0 L660.6217782649107,268.0 Z" fill="#4ECDC4" fill-opacity="0.7" stroke="#0d1117" stroke-width="1"/><path d="M645.0337782649108,241.0 L660.6217782649107,250.0 L660.6217782649107,268.0 L645.0337782649108,259.0 Z" fill="#4ECDC4" fill-opacity="0.5" stroke="#0d1117" stroke-width="1"/></g>
<g class="node" style="animation: float 3s ease-in-out infinite; animation-delay: 0.2s;"><path d="M600.0,267.0 L615.588,276.0 L600.0,285.0 L584.412,276.0 Z" fill="#4ECDC4" fill-opacity="0.9" stroke="#0d1117" stroke-width="1"/><path d="M600.0,285.0 L615.588,276.0 L615.588,294.0 L600.0,303.0 Z" fill="#4ECDC4" fill-opacity="0.7" stroke="#0d1117" stroke-width="1"/><path d="M584.412,276.0 L600.0,285.0 L600.0,303.0 L584.412,294.0 Z" fill="#4ECDC4" fill-opacity="0.5" stroke="#0d1117" stroke-width="1"/></g>
<g class="node" style="animation: float 3s ease-in-out infinite; animation-delay: 0.0s;"><path d="M721.2435565298214,232.0 L736.8315565298213,241.0 L721.2435565298214,250.0 L705.6555565298214,241.0 Z" fill="#4ECDC4" fill-opacity="0.9" stroke="#0d1117" stroke-width="1"/><path d="M721.2435565298214,250.0 L736.8315565298213,241.0 L736.8315565298213,259.0 L721.2435565298214,268.0 Z" fill="#4ECDC4" fill-opacity="0.7" stroke="#0d1117" stroke-width="1"/><path d="M705.6555565298214,241.0 L721.2435565298214,250.0 L721.2435565298214,268.0 L705.6555565298214,259.0 Z" fill="#4ECDC4" fill-opacity="0.5" stroke="#0d1117" stroke-width="1"/></g>
<g class="node" style="animation: float 3s ease-in-out infinite; animation-delay: 0.2s;"><path d="M660.6217782649107,267.0 L676.2097782649107,276.0 L660.6217782649107,285.0 L645.0337782649108,276.0 Z" fill="#4ECDC4" fill-opacity="0.9" stroke="#0d1117" stroke-width="1"/><path d="M660.6217782649107,285.0 L676.2097782649107,276.0 L676.2097782649107,294.0 L660.6217782649107,303.0 Z" fill="#4ECDC4" fill-opacity="0.7" stroke="#0d1117" stroke-width="1"/><path d="M645.0337782649108,276.0 L660.6217782649107,285.0 L660.6217782649107,303.0 L645.0337782649108,294.0 Z" fill="#4ECDC4" fill-opacity="0.5" stroke="#0d1117" stroke-width="1"/></g>
<g class="node" style="animation: float 3s ease-in-out infinite; animation-delay: 0.4s;"><path d="M600.0,302.0 L615.588,311.0 L600.0,320.0 L584.412,311.0 Z" fill="#4ECDC4" fill-opacity="0.9" stroke="#0d1117" stroke-width="1"/><path d="M600.0,320.0 L615.588,311.0 L615.588,329.0 L600.0,338.0 Z" fill="#4ECDC4" fill-opacity="0.7" stroke="#0d1117" stroke-width="1"/><path d="M584.412,311.0 L600.0,320.0 L600.0,338.0 L584.412,329.0 Z" fill="#4ECDC4" fill-opacity="0.5" stroke="#0d1117" stroke-width="1"/></g>
<g class="node" style="animation: float 3s ease-in-out infinite; animation-delay: -0.2s;"><path d="M842.4871130596429,92.0 L858.0751130596428,101.0 L842.4871130596429,110.0 L826.8991130596429,101.0 Z" fill="#FFE66D" fill-opacity="0.9" stroke="#0d1117" stroke-width="1"/><path d="M842.4871130596429,110.0 L858.0751130596428,101.0 L858.0751130596428,119.0 L842.4871130596429,128.0 Z" fill="#FFE66D" fill-opacity="0.7" stroke="#0d1117" stroke-width="1"/><path d="M826.8991130596429,101.0 L842.4871130596429,110.0 L842.4871130596429,128.0 L826.8991130596429,119.0 Z" fill="#FFE66D" fill-opacity="0.5" stroke="#0d1117" stroke-width="1"/></g>
<g class="node" style="animation: float 3s ease-in-out infinite; animation-delay: -0.1s;"><path d="M872.7980021920982,109.50000000000001 L888.3860021920982,118.50000000000001 L872.7980021920982,127.50000000000001 L857.2100021920983,118.50000000000001 Z" fill="#FFE66D" fill-opacity="0.9" stroke="#0d1117" stroke-width="1"/><path d="M872.7980021920982,127.50000000000001 L888.3860021920982,118.50000000000001 L888.3860021920982,136.5 L872.7980021920982,145.5 Z" fill="#FFE66D" fill-opacity="0.7" stroke="#0d1117" stroke-width="1"/><path d="M857.2100021920983,118.50000000000001 L872.7980021920982,127.50000000000001 L872.7980021920982,145.5 L857.2100021920983,136.5 Z" fill="#FFE66D" fill-opacity="0.5" stroke="#0d1117" stroke-width="1"/></g>
<g class="node" style="animation: float 3s ease-in-out infinite; animation-delay: 0.0s;"><path d="M903.1088913245535,127.0 L918.6968913245535,136.0 L903.1088913245535,145.0 L887.5208913245535,136.0 Z" fill="#FFE66D" fill-opacity="0.9" stroke="#0d1117" stroke-width="1"/><path d="M903.1088913245535,145.0 L918.6968913245535,136.0 L918.6968913245535,154.0 L903.1088913245535,163.0 Z" fill="#FFE66D" fill-opacity="0.7" stroke="#0d1117" stroke-width="1"/><path d="M887.5208913245535,136.0 L903.1088913245535,145.0 L903.1088913245535,163.0 L887.5208913245535,154.0 Z" fill="#FFE66D" fill-opacity="0.5" stroke="#0d1117" stroke-width="1"/></g>
<g class="node" style="animation: float 3s ease-in-out infinite; animation-delay: 0.1s;"><path d="M933.419780457009,144.5 L949.007780457009,153.5 L933.419780457009,162.5 L917.831780457009,153.5 Z" fill="#FFE66D" fill-opacity="0.9" stroke="#0d1117" stroke-width="1"/><path d="M933.419780457009,162.5 L949.007780457009,153.5 L949.007780457009,171.5 L933.419780457009,180.5 Z" fill="#FFE66D" fill-opacity="0.7" stroke="#0d1117" stroke-width="1"/><path d="M917.831780457009,153.5 L933.419780457009,162.5 L933.419780457009,180.5 L917.831780457009,171.5 Z" fill="#FFE66D" fill-opacity="0.5" stroke="#0d1117" stroke-width="1"/></g>
<g class="node" style="animation: float 3s ease-in-out infinite; animation-delay: 0.2s;"><path d="M963.7306695894642,162.0 L979.3186695894642,171.0 L963.7306695894642,180.0 L948.1426695894643,171.0 Z" fill="#FFE66D" fill-opacity="0.9" stroke="#0d1117" stroke-width="1"/><path d="M963.7306695894642,180.0 L979.3186695894642,171.0 L979.3186695894642,189.0 L963.7306695894642,198.0 Z" fill="#FFE66D" fill-opacity="0.7" stroke="#0d1117" stroke-width="1"/><path d="M948.1426695894643,171.0 L963.7306695894642,180.0 L963.7306695894642,198.0 L948.1426695894643,189.0 Z" fill="#FFE66D" fill-opacity="0.5" stroke="#0d1117" stroke-width="1"/></g>
<text x="923.1088913245535" y="105.0" text-anchor="middle" class="label-text" font-size="12" fill="#FFE66D">OUTPUT: INTELLIGENCE</text>
<line x1="236.26933041053576" y1="355.0" x2="600.0" y2="250.0" stroke="#58a6ff" stroke-width="1" class="connection" opacity="0.4" />
<line x1="266.5802195429911" y1="372.5" x2="600.0" y2="250.0" stroke="#58a6ff" stroke-width="1" class="connection" opacity="0.4" />
<line x1="296.89110867544645" y1="390.0" x2="600.0" y2="250.0" stroke="#58a6ff" stroke-width="1" class="connection" opacity="0.4" />
<line x1="327.2019978079018" y1="407.5" x2="600.0" y2="250.0" stroke="#58a6ff" stroke-width="1" class="connection" opacity="0.4" />
<line x1="357.51288694035713" y1="425.0" x2="600.0" y2="250.0" stroke="#58a6ff" stroke-width="1" class="connection" opacity="0.4" />
<line x1="600.0" y1="180.0" x2="903.1088913245535" y2="145.0" stroke="#bc8cff" stroke-width="1" class="connection" opacity="0.4" />
<line x1="539.3782217350893" y1="215.0" x2="903.1088913245535" y2="145.0" stroke="#bc8cff" stroke-width="1" class="connection" opacity="0.4" />
<line x1="478.75644347017857" y1="250.0" x2="903.1088913245535" y2="145.0" stroke="#bc8cff" stroke-width="1" class="connection" opacity="0.4" />
<line x1="600.0" y1="215.0" x2="903.1088913245535" y2="145.0" stroke="#bc8cff" stroke-width="1" class="connection" opacity="0.4" />
<line x1="539.3782217350893" y1="250.0" x2="903.1088913245535" y2="145.0" stroke="#bc8cff" stroke-width="1" class="connection" opacity="0.4" />
<line x1="660.6217782649107" y1="215.0" x2="903.1088913245535" y2="145.0" stroke="#bc8cff" stroke-width="1" class="connection" opacity="0.4" />
<line x1="600.0" y1="250.0" x2="903.1088913245535" y2="145.0" stroke="#bc8cff" stroke-width="1" class="connection" opacity="0.4" />
<line x1="539.3782217350893" y1="285.0" x2="903.1088913245535" y2="145.0" stroke="#bc8cff" stroke-width="1" class="connection" opacity="0.4" />
<line x1="660.6217782649107" y1="250.0" x2="903.1088913245535" y2="145.0" stroke="#bc8cff" stroke-width="1" class="connection" opacity="0.4" />
<line x1="600.0" y1="285.0" x2="903.1088913245535" y2="145.0" stroke="#bc8cff" stroke-width="1" class="connection" opacity="0.4" />
<line x1="721.2435565298214" y1="250.0" x2="903.1088913245535" y2="145.0" stroke="#bc8cff" stroke-width="1" class="connection" opacity="0.4" />
<line x1="660.6217782649107" y1="285.0" x2="903.1088913245535" y2="145.0" stroke="#bc8cff" stroke-width="1" class="connection" opacity="0.4" />
<line x1="600.0" y1="320.0" x2="903.1088913245535" y2="145.0" stroke="#bc8cff" stroke-width="1" class="connection" opacity="0.4" />

    <g transform="translate(50, 50)">
        <rect width="200" height="80" fill="none" stroke="#58a6ff" stroke-width="1" />
        <text x="10" y="25" class="label-text" font-size="14" fill="#58a6ff">SYSTEM: NJX-KERNEL</text>
        <text x="10" y="45" class="label-text" font-size="10" fill="#c9d1d9">> STATUS: ONLINE</text>
        <text x="10" y="60" class="label-text" font-size="10" fill="#c9d1d9">> LOAD: 98%</text>
        
        <!-- Animated Blinking Cursor -->
        <rect x="10" y="70" width="8" height="2" fill="#58a6ff">
            <animate attributeName="opacity" values="1;0;1" dur="1s" repeatCount="indefinite" />
        </rect>
    </g>
    
</svg>