<svg width="1200" height="500" xmlns="http://www.w3.org/2000/svg" xmlns:xlink="http://www.w3.org/1999/xlink" style="background-color: #0d1117;">
<defs>
<style>

            @keyframes flow {
                0% { stroke-dashoffset: 100; }
                100% { stroke-dashoffset: 0; }
            }
            @keyframes pulse {
                0% { opacity: 0.6; transform: scale(1); }
                50% { opacity: 1; transform: scale(1.05); }
                100% { opacity: 0.6; transform: scale(1); }
            }
            @keyframes float {
                0% { transform: translateY(0px); }
                50% { transform: translateY(-5px); }
                100% { transform: translateY(0px); }
            }
            .node { cursor: pointer; transition: all 0.3s ease; }
            .node:hover { filter: brightness(1.3); }
            .node:hover rect, .node:hover path { stroke: white; stroke-width: 2px; }
            .connection { stroke-dasharray: 5; animation: flow 2s linear infinite; }
            .label-text { font-family: 'Courier New', monospace; font-weight: bold; pointer-events: none; }
        
</style>
<filter id="glow" x="-20%" y="-20%" width="140%" height="140%">
<feGaussianBlur stdDeviation="3" result="blur" />
<feComposite in="SourceGraphic" in2="blur" operator="over" />
</filter>
</defs>
<a xlink:href="#user-content-core-identity"><g class="node" style="animation: float 3s ease-in-out infinite; animation-delay: -0.2s;"><path d="M478.75644347017857,282.0 L494.3444434701786,291.0 L478.75644347017857,300.0 L463.16844347017854,291.0 Z" fill="#FF6B6B" fill-opacity="0.9" stroke="#0d1117" stroke-width="1"/><path d="M478.75644347017857,300.0 L494.3444434701786,291.0 L494.3444434701786,309.0 L478.75644347017857,318.0 Z" fill="#FF6B6B" fill-opacity="0.7" stroke="#0d1117" stroke-width="1"/><path d="M463.16844347017854,291.0 L478.75644347017857,300.0 L478.75644347017857,318.0 L463.16844347017854,309.0 Z" fill="#FF6B6B" fill-opacity="0.5" stroke="#0d1117" stroke-width="1"/></a></g>
<a xlink:href="#user-content-core-identity"><g class="node" style="animation: float 3s ease-in-out infinite; animation-delay: -0.1s;"><path d="M509.06733260263394,299.5 L524.655332602634,308.5 L509.06733260263394,317.5 L493.4793326026339,308.5 Z" fill="#FF6B6B" fill-opacity="0.9" stroke="#0d1117" stroke-width="1"/><path d="M509.06733260263394,317.5 L524.655332602634,308.5 L524.655332602634,326.5 L509.06733260263394,335.5 Z" fill="#FF6B6B" fill-opacity="0.7" stroke="#0d1117" stroke-width="1"/><path d="M493.4793326026339,308.5 L509.06733260263394,317.5 L509.06733260263394,335.5 L493.4793326026339,326.5 Z" fill="#FF6B6B" fill-opacity="0.5" stroke="#0d1117" stroke-width="1"/></a></g>
<a xlink:href="#user-content-core-identity"><g class="node" style="animation: float 3s ease-in-out infinite; animation-delay: 0.0s;"><path d="M539.3782217350893,317.0 L554.9662217350892,326.0 L539.3782217350893,335.0 L523.7902217350893,326.0 Z" fill="#FF6B6B" fill-opacity="0.9" stroke="#0d1117" stroke-width="1"/><path d="M539.3782217350893,335.0 L554.9662217350892,326.0 L554.9662217350892,344.0 L539.3782217350893,353.0 Z" fill="#FF6B6B" fill-opacity="0.7" stroke="#0d1117" stroke-width="1"/><path d="M523.7902217350893,326.0 L539.3782217350893,335.0 L539.3782217350893,353.0 L523.7902217350893,344.0 Z" fill="#FF6B6B" fill-opacity="0.5" stroke="#0d1117" stroke-width="1"/></a></g>
<a xlink:href="#user-content-core-identity"><g class="node" style="animation: float 3s ease-in-out infinite; animation-delay: 0.1s;"><path d="M569.6891108675446,334.5 L585.2771108675446,343.5 L569.6891108675446,352.5 L554.1011108675447,343.5 Z" fill="#FF6B6B" fill-opacity="0.9" stroke="#0d1117" stroke-width="1"/><path d="M569.6891108675446,352.5 L585.2771108675446,343.5 L585.2771108675446,361.5 L569.6891108675446,370.5 Z" fill="#FF6B6B" fill-opacity="0.7" stroke="#0d1117" stroke-width="1"/><path d="M554.1011108675447,343.5 L569.6891108675446,352.5 L569.6891108675446,370.5 L554.1011108675447,361.5 Z" fill="#FF6B6B" fill-opacity="0.5" stroke="#0d1117" stroke-width="1"/></a></g>
<a xlink:href="#user-content-core-identity"><g class="node" style="animation: float 3s ease-in-out infinite; animation-delay: 0.2s;"><path d="M600.0,352.0 L615.588,361.0 L600.0,370.0 L584.412,361.0 Z" fill="#FF6B6B" fill-opacity="0.9" stroke="#0d1117" stroke-width="1"/><path d="M600.0,370.0 L615.588,361.0 L615.588,379.0 L600.0,388.0 Z" fill="#FF6B6B" fill-opacity="0.7" stroke="#0d1117" stroke-width="1"/><path d="M584.412,361.0 L600.0,370.0 L600.0,388.0 L584.412,379.0 Z" fill="#FF6B6B" fill-opacity="0.5" stroke="#0d1117" stroke-width="1"/></a></g>
<text x="539.3782217350893" y="385.0" text-anchor="middle" class="label-text" font-size="12" fill="#FF6B6B">INPUT: DATA</text>
<a xlink:href="#user-content-research-frontiers"><g class="node" style="animation: float 3s ease-in-out infinite; animation-delay: -0.4s;"><path d="M600.0,107.0 L615.588,116.0 L600.0,125.0 L584.412,116.0 Z" fill="#4ECDC4" fill-opacity="0.9" stroke="#0d1117" stroke-width="1"/><path d="M600.0,125.0 L615.588,116.0 L615.588,134.0 L600.0,143.0 Z" fill="#4ECDC4" fill-opacity="0.7" stroke="#0d1117" stroke-width="1"/><path d="M584.412,116.0 L600.0,125.0 L600.0,143.0 L584.412,134.0 Z" fill="#4ECDC4" fill-opacity="0.5" stroke="#0d1117" stroke-width="1"/></a></g>
<a xlink:href="#user-content-research-frontiers"><g class="node" style="animation: float 3s ease-in-out infinite; animation-delay: -0.2s;"><path d="M539.3782217350893,142.0 L554.9662217350892,151.0 L539.3782217350893,160.0 L523.7902217350893,151.0 Z" fill="#4ECDC4" fill-opacity="0.9" stroke="#0d1117" stroke-width="1"/><path d="M539.3782217350893,160.0 L554.9662217350892,151.0 L554.9662217350892,169.0 L539.3782217350893,178.0 Z" fill="#4ECDC4" fill-opacity="0.7" stroke="#0d1117" stroke-width="1"/><path d="M523.7902217350893,151.0 L539.3782217350893,160.0 L539.3782217350893,178.0 L523.7902217350893,169.0 Z" fill="#4ECDC4" fill-opacity="0.5" stroke="#0d1117" stroke-width="1"/></a></g>
<a xlink:href="#user-content-research-frontiers"><g class="node" style="animation: float 3s ease-in-out infinite; animation-delay: 0.0s;"><path d="M478.75644347017857,177.0 L494.3444434701786,186.0 L478.75644347017857,195.0 L463.16844347017854,186.0 Z" fill="#4ECDC4" fill-opacity="0.9" stroke="#0d1117" stroke-width="1"/><path d="M478.75644347017857,195.0 L494.3444434701786,186.0 L494.3444434701786,204.0 L478.75644347017857,213.0 Z" fill="#4ECDC4" fill-opacity="0.7" stroke="#0d1117" stroke-width="1"/><path d="M463.16844347017854,186.0 L478.75644347017857,195.0 L478.75644347017857,213.0 L463.16844347017854,204.0 Z" fill="#4ECDC4" fill-opacity="0.5" stroke="#0d1117" stroke-width="1"/></a></g>
<a xlink:href="#user-content-research-frontiers"><g class="node" style="animation: float 3s ease-in-out infinite; animation-delay: -0.2s;"><path d="M600.0,142.0 L615.588,151.0 L600.0,160.0 L584.412,151.0 Z" fill="#4ECDC4" fill-opacity="0.9" stroke="#0d1117" stroke-width="1"/><path d="M600.0,160.0 L615.588,151.0 L615.588,169.0 L600.0,178.0 Z" fill="#4ECDC4" fill-opacity="0.7" stroke="#0d1117" stroke-width="1"/><path d="M584.412,151.0 L600.0,160.0 L600.0,178.0 L584.412,169.0 Z" fill="#4ECDC4" fill-opacity="0.5" stroke="#0d1117" stroke-width="1"/></a></g>
<a xlink:href="#user-content-research-frontiers"><g class="node" style="animation: float 3s ease-in-out infinite; animation-delay: 0.0s;"><path d="M539.3782217350893,177.0 L554.9662217350892,186.0 L539.3782217350893,195.0 L523.7902217350893,186.0 Z" fill="#4ECDC4" fill-opacity="0.9" stroke="#0d1117" stroke-width="1"/><path d="M539.3782217350893,195.0 L554.9662217350892,186.0 L554.9662217350892,204.0 L539.3782217350893,213.0 Z" fill="#4ECDC4" fill-opacity="0.7" stroke="#0d1117" stroke-width="1"/><path d="M523.7902217350893,186.0 L539.3782217350893,195.0 L539.3782217350893,213.0 L523.7902217350893,204.0 Z" fill="#4ECDC4" fill-opacity="0.5" stroke="#0d1117" stroke-width="1"/></a></g>
<a xlink:href="#user-content-research-frontiers"><g class="node" style="animation: float 3s ease-in-out infinite; animation-delay: -0.2s;"><path d="M660.6217782649107,142.0 L676.2097782649107,151.0 L660.6217782649107,160.0 L645.0337782649108,151.0 Z" fill="#4ECDC4" fill-opacity="0.9" stroke="#0d1117" stroke-width="1"/><path d="M660.6217782649107,160.0 L676.2097782649107,151.0 L676.2097782649107,169.0 L660.6217782649107,178.0 Z" fill="#4ECDC4" fill-opacity="0.7" stroke="#0d1117" stroke-width="1"/><path d="M645.0337782649108,151.0 L660.6217782649107,160.0 L660.6217782649107,178.0 L645.0337782649108,169.0 Z" fill="#4ECDC4" fill-opacity="0.5" stroke="#0d1117" stroke-width="1"/></a></g>
<a xlink:href="#user-content-research-frontiers"><g class="node" style="animation: float 3s ease-in-out infinite; animation-delay: 0.0s;"><path d="M600.0,177.0 L615.588,186.0 L600.0,195.0 L584.412,186.0 Z" fill="#4ECDC4" fill-opacity="0.9" stroke="#0d1117" stroke-width="1"/><path d="M600.0,195.0 L615.588,186.0 L615.588,204.0 L600.0,213.0 Z" fill="#4ECDC4" fill-opacity="0.7" stroke="#0d1117" stroke-width="1"/><path d="M584.412,186.0 L600.0,195.0 L600.0,213.0 L584.412,204.0 Z" fill="#4ECDC4" fill-opacity="0.5" stroke="#0d1117" stroke-width="1"/></a></g>
<a xlink:href="#user-content-research-frontiers"><g class="node" style="animation: float 3s ease-in-out infinite; animation-delay: 0.2s;"><path d="M539.3782217350893,212.0 L554.9662217350892,221.0 L539.3782217350893,230.0 L523.7902217350893,221.0 Z" fill="#4ECDC4" fill-opacity="0.9" stroke="#0d1117" stroke-width="1"/><path d="M539.3782217350893,230.0 L554.9662217350892,221.0 L554.9662217350892,239.0 L539.3782217350893,248.0 Z" fill="#4ECDC4" fill-opacity="0.7" stroke="#0d1117" stroke-width="1"/><path d="M523.7902217350893,221.0 L539.3782217350893,230.0 L539.3782217350893,248.0 L523.7902217350893,239.0 Z" fill="#4ECDC4" fill-opacity="0.5" stroke="#0d1117" stroke-width="1"/></a></g>
<a xlink:href="#user-content-research-frontiers"><g class="node" style="animation: float 3s ease-in-out infinite; animation-delay: 0.0s;"><path d="M660.6217782649107,177.0 L676.2097782649107,186.0 L660.6217782649107,195.0 L645.0337782649108,186.0 Z" fill="#4ECDC4" fill-opacity="0.9" stroke="#0d1117" stroke-width="1"/><path d="M660.6217782649107,195.0 L676.2097782649107,186.0 L676.2097782649107,204.0 L660.6217782649107,213.0 Z" fill="#4ECDC4" fill-opacity="0.7" stroke="#0d1117" stroke-width="1"/><path d="M645.0337782649108,186.0 L660.6217782649107,195.0 L660.6217782649107,213.0 L645.0337782649108,204.0 Z" fill="#4ECDC4" fill-opacity="0.5" stroke="#0d1117" stroke-width="1"/></a></g>
<a xlink:href="#user-content-research-frontiers"><g class="node" style="animation: float 3s ease-in-out infinite; animation-delay: 0.2s;"><path d="M600.0,212.0 L615.588,221.0 L600.0,230.0 L584.412,221.0 Z" fill="#4ECDC4" fill-opacity="0.9" stroke="#0d1117" stroke-width="1"/><path d="M600.0,230.0 L615.588,221.0 L615.588,239.0 L600.0,248.0 Z" fill="#4ECDC4" fill-opacity="0.7" stroke="#0d1117" stroke-width="1"/><path d="M584.412,221.0 L600.0,230.0 L600.0,248.0 L584.412,239.0 Z" fill="#4ECDC4" fill-opacity="0.5" stroke="#0d1117" stroke-width="1"/></a></g>
<a xlink:href="#user-content-research-frontiers"><g class="node" style="animation: float 3s ease-in-out infinite; animation-delay: 0.0s;"><path d="M721.2435565298214,177.0 L736.8315565298213,186.0 L721.2435565298214,195.0 L705.6555565298214,186.0 Z" fill="#4ECDC4" fill-opacity="0.9" stroke="#0d1117" stroke-width="1"/><path d="M721.2435565298214,195.0 L736.8315565298213,186.0 L736.8315565298213,204.0 L721.2435565298214,213.0 Z" fill="#4ECDC4" fill-opacity="0.7" stroke="#0d1117" stroke-width="1"/><path d="M705.6555565298214,186.0 L721.2435565298214,195.0 L721.2435565298214,213.0 L705.6555565298214,204.0 Z" fill="#4ECDC4" fill-opacity="0.5" stroke="#0d1117" stroke-width="1"/></a></g>
<a xlink:href="#user-content-research-frontiers"><g class="node" style="animation: float 3s ease-in-out infinite; animation-delay: 0.2s;"><path d="M660.6217782649107,212.0 L676.2097782649107,221.0 L660.6217782649107,230.0 L645.0337782649108,221.0 Z" fill="#4ECDC4" fill-opacity="0.9" stroke="#0d1117" stroke-width="1"/><path d="M660.6217782649107,230.0 L676.2097782649107,221.0 L676.2097782649107,239.0 L660.6217782649107,248.0 Z" fill="#4ECDC4" fill-opacity="0.7" stroke="#0d1117" stroke-width="1"/><path d="M645.0337782649108,221.0 L660.6217782649107,230.0 L660.6217782649107,248.0 L645.0337782649108,239.0 Z" fill="#4ECDC4" fill-opacity="0.5" stroke="#0d1117" stroke-width="1"/></a></g>
<a xlink:href="#user-content-research-frontiers"><g class="node" style="animation: float 3s ease-in-out infinite; animation-delay: 0.4s;"><path d="M600.0,247.0 L615.588,256.0 L600.0,265.0 L584.412,256.0 Z" fill="#4ECDC4" fill-opacity="0.9" stroke="#0d1117" stroke-width="1"/><path d="M600.0,265.0 L615.588,256.0 L615.588,274.0 L600.0,283.0 Z" fill="#4ECDC4" fill-opacity="0.7" stroke="#0d1117" stroke-width="1"/><path d="M584.412,256.0 L600.0,265.0 L600.0,283.0 L584.412,274.0 Z" fill="#4ECDC4" fill-opacity="0.5" stroke="#0d1117" stroke-width="1"/></a></g>
<a xlink:href="#user-content-selected-deployments"><g class="node" style="animation: float 3s ease-in-out infinite; animation-delay: -0.2s;"><path d="M600.0,2.0 L615.588,11.0 L600.0,20.0 L584.412,11.0 Z" fill="#FFE66D" fill-opacity="0.9" stroke="#0d1117" stroke-width="1"/><path d="M600.0,20.0 L615.588,11.0 L615.588,29.0 L600.0,38.0 Z" fill="#FFE66D" fill-opacity="0.7" stroke="#0d1117" stroke-width="1"/><path d="M584.412,11.0 L600.0,20.0 L600.0,38.0 L584.412,29.0 Z" fill="#FFE66D" fill-opacity="0.5" stroke="#0d1117" stroke-width="1"/></a></g>
<a xlink:href="#user-content-selected-deployments"><g class="node" style="animation: float 3s ease-in-out infinite; animation-delay: -0.1s;"><path d="M630.3108891324554,19.5 L645.8988891324553,28.5 L630.3108891324554,37.5 L614.7228891324554,28.5 Z" fill="#FFE66D" fill-opacity="0.9" stroke="#0d1117" stroke-width="1"/><path d="M630.3108891324554,37.5 L645.8988891324553,28.5 L645.8988891324553,46.5 L630.3108891324554,55.5 Z" fill="#FFE66D" fill-opacity="0.7" stroke="#0d1117" stroke-width="1"/><path d="M614.7228891324554,28.5 L630.3108891324554,37.5 L630.3108891324554,55.5 L614.7228891324554,46.5 Z" fill="#FFE66D" fill-opacity="0.5" stroke="#0d1117" stroke-width="1"/></a></g>
<a xlink:href="#user-content-selected-deployments"><g class="node" style="animation: float 3s ease-in-out infinite; animation-delay: 0.0s;"><path d="M660.6217782649107,37.0 L676.2097782649107,46.0 L660.6217782649107,55.0 L645.0337782649108,46.0 Z" fill="#FFE66D" fill-opacity="0.9" stroke="#0d1117" stroke-width="1"/><path d="M660.6217782649107,55.0 L676.2097782649107,46.0 L676.2097782649107,64.0 L660.6217782649107,73.0 Z" fill="#FFE66D" fill-opacity="0.7" stroke="#0d1117" stroke-width="1"/><path d="M645.0337782649108,46.0 L660.6217782649107,55.0 L660.6217782649107,73.0 L645.0337782649108,64.0 Z" fill="#FFE66D" fill-opacity="0.5" stroke="#0d1117" stroke-width="1"/></a></g>
<a xlink:href="#user-content-selected-deployments"><g class="node" style="animation: float 3s ease-in-out infinite; animation-delay: 0.1s;"><path d="M690.932667397366,54.5 L706.520667397366,63.5 L690.932667397366,72.5 L675.344667397366,63.5 Z" fill="#FFE66D" fill-opacity="0.9" stroke="#0d1117" stroke-width="1"/><path d="M690.932667397366,72.5 L706.520667397366,63.5 L706.520667397366,81.5 L690.932667397366,90.5 Z" fill="#FFE66D" fill-opacity="0.7" stroke="#0d1117" stroke-width="1"/><path d="M675.344667397366,63.5 L690.932667397366,72.5 L690.932667397366,90.5 L675.344667397366,81.5 Z" fill="#FFE66D" fill-opacity="0.5" stroke="#0d1117" stroke-width="1"/></a></g>
<a xlink:href="#user-content-selected-deployments"><g class="node" style="animation: float 3s ease-in-out infinite; animation-delay: 0.2s;"><path d="M721.2435565298214,72.0 L736.8315565298213,81.0 L721.2435565298214,90.0 L705.6555565298214,81.0 Z" fill="#FFE66D" fill-opacity="0.9" stroke="#0d1117" stroke-width="1"/><path d="M721.2435565298214,90.0 L736.8315565298213,81.0 L736.8315565298213,99.0 L721.2435565298214,108.0 Z" fill="#FFE66D" fill-opacity="0.7" stroke="#0d1117" stroke-width="1"/><path d="M705.6555565298214,81.0 L721.2435565298214,90.0 L721.2435565298214,108.0 L705.6555565298214,99.0 Z" fill="#FFE66D" fill-opacity="0.5" stroke="#0d1117" stroke-width="1"/></a></g>
<text x="660.6217782649107" y="15.0" text-anchor="middle" class="label-text" font-size="12" fill="#FFE66D">OUTPUT: INTELLIGENCE</text>
<line x1="478.75644347017857" y1="300.0" x2="600.0" y2="195.0" stroke="#58a6ff" stroke-width="1" class="connection" opacity="0.4" />
<line x1="509.06733260263394" y1="317.5" x2="600.0" y2="195.0" stroke="#58a6ff" stroke-width="1" class="connection" opacity="0.4" />
<line x1="539.3782217350893" y1="335.0" x2="600.0" y2="195.0" stroke="#58a6ff" stroke-width="1" class="connection" opacity="0.4" />
<line x1="569.6891108675446" y1="352.5" x2="600.0" y2="195.0" stroke="#58a6ff" stroke-width="1" class="connection" opacity="0.4" />
<line x1="600.0" y1="370.0" x2="600.0" y2="195.0" stroke="#58a6ff" stroke-width="1" class="connection" opacity="0.4" />
<line x1="600.0" y1="125.0" x2="660.6217782649107" y2="55.0" stroke="#bc8cff" stroke-width="1" class="connection" opacity="0.4" />
<line x1="539.3782217350893" y1="160.0" x2="660.6217782649107" y2="55.0" stroke="#bc8cff" stroke-width="1" class="connection" opacity="0.4" />
<line x1="478.75644347017857" y1="195.0" x2="660.6217782649107" y2="55.0" stroke="#bc8cff" stroke-width="1" class="connection" opacity="0.4" />
<line x1="600.0" y1="160.0" x2="660.6217782649107" y2="55.0" stroke="#bc8cff" stroke-width="1" class="connection" opacity="0.4" />
<line x1="539.3782217350893" y1="195.0" x2="660.6217782649107" y2="55.0" stroke="#bc8cff" stroke-width="1" class="connection" opacity="0.4" />
<line x1="660.6217782649107" y1="160.0" x2="660.6217782649107" y2="55.0" stroke="#bc8cff" stroke-width="1" class="connection" opacity="0.4" />
<line x1="600.0" y1="195.0" x2="660.6217782649107" y2="55.0" stroke="#bc8cff" stroke-width="1" class="connection" opacity="0.4" />
<line x1="539.3782217350893" y1="230.0" x2="660.6217782649107" y2="55.0" stroke="#bc8cff" stroke-width="1" class="connection" opacity="0.4" />
<line x1="660.6217782649107" y1="195.0" x2="660.6217782649107" y2="55.0" stroke="#bc8cff" stroke-width="1" class="connection" opacity="0.4" />
<line x1="600.0" y1="230.0" x2="660.6217782649107" y2="55.0" stroke="#bc8cff" stroke-width="1" class="connection" opacity="0.4" />
<line x1="721.2435565298214" y1="195.0" x2="660.6217782649107" y2="55.0" stroke="#bc8cff" stroke-width="1" class="connection" opacity="0.4" />
<line x1="660.6217782649107" y1="230.0" x2="660.6217782649107" y2="55.0" stroke="#bc8cff" stroke-width="1" class="connection" opacity="0.4" />
<line x1="600.0" y1="265.0" x2="660.6217782649107" y2="55.0" stroke="#bc8cff" stroke-width="1" class="connection" opacity="0.4" />

    <g transform="translate(50, 50)">
        <rect width="200" height="80" fill="none" stroke="#58a6ff" stroke-width="1" />
        <text x="10" y="25" class="label-text" font-size="14" fill="#58a6ff">SYSTEM: NJX-KERNEL</text>
        <text x="10" y="45" class="label-text" font-size="10" fill="#c9d1d9">> STATUS: ONLINE</text>
        <text x="10" y="60" class="label-text" font-size="10" fill="#c9d1d9">> LOAD: 98%</text>
        
        <!-- Animated Blinking Cursor -->
        <rect x="10" y="70" width="8" height="2" fill="#58a6ff">
            <animate attributeName="opacity" values="1;0;1" dur="1s" repeatCount="indefinite" />
        </rect>
    </g>
    
    <g transform="translate(950, 50)">
        <text x="0" y="20" class="label-text" font-size="12" fill="#c9d1d9" text-anchor="end">NAVIGATION_CONTROLS:</text>
        <text x="0" y="40" class="label-text" font-size="10" fill="#FF6B6B" text-anchor="end">[CLICK NODES TO INSPECT]</text>
    </g>
    
</svg>