<svg width="1200" height="360" viewBox="0 0 1200 360" fill="none" xmlns="http://www.w3.org/2000/svg">
  <defs>
    <linearGradient id="grad-bg" x1="0" y1="0" x2="1" y2="1">
      <stop offset="0%" stop-color="#0B1623" />
      <stop offset="50%" stop-color="#102C4A" />
      <stop offset="100%" stop-color="#1B3E5C" />
    </linearGradient>
    <linearGradient id="grad-accent" x1="0" y1="0" x2="1" y2="1">
      <stop offset="0%" stop-color="#36BCF7" />
      <stop offset="100%" stop-color="#6C5BFF" />
    </linearGradient>
    <radialGradient id="grad-glow" cx="0.5" cy="0.5" r="0.8">
      <stop offset="0" stop-color="#36BCF7" stop-opacity="0.35" />
      <stop offset="1" stop-color="#0B1623" stop-opacity="0" />
    </radialGradient>
    <mask id="wave-mask">
      <path d="M0 220C160 260 280 180 420 200C560 220 600 310 760 280C920 250 1040 310 1200 270V360H0V220Z" fill="white" />
    </mask>
    <pattern id="grid" width="30" height="30" patternUnits="userSpaceOnUse">
      <path d="M30 0H0V30" stroke="rgba(255,255,255,0.07)" stroke-width="1" />
    </pattern>
  </defs>
  <rect width="1200" height="360" rx="28" fill="url(#grad-bg)" />
  <rect width="1200" height="360" rx="28" fill="url(#grid)" />
  <g mask="url(#wave-mask)">
    <rect width="1200" height="360" fill="url(#grad-accent)" opacity="0.15" />
    <circle cx="240" cy="240" r="220" fill="url(#grad-glow)" />
    <circle cx="940" cy="140" r="260" fill="url(#grad-glow)" opacity="0.45" />
  </g>
  <g fill="none" stroke="rgba(255,255,255,0.22)" stroke-width="0.6">
    <path d="M90 80C190 160 250 56 340 120C430 184 490 60 580 140C670 220 780 100 880 180C980 260 1050 140 1160 210" />
    <path d="M90 240C200 300 260 220 350 260C440 300 520 180 610 220C700 260 790 160 880 210C970 260 1040 200 1150 240" opacity="0.6" />
  </g>
  <g font-family="'Fira Code', 'JetBrains Mono', 'SFMono-Regular', monospace" fill="#F5FBFF">
    <text x="110" y="150" font-size="24" letter-spacing="8" opacity="0.7">AI MAKER · FULL-STACK · RESEARCHER</text>
    <text x="110" y="210" font-size="64" font-weight="600">NJX · OPEN SOURCE DRIVEN</text>
    <text x="110" y="260" font-size="28" opacity="0.78">构建面向未来的人机智能体验 · Beijing Institute of Technology</text>
  </g>
  <g font-family="'Inter', 'Segoe UI', sans-serif" fill="#DAEEFF">
    <rect x="110" y="290" width="410" height="50" rx="12" fill="rgba(15,30,50,0.65)" stroke="rgba(96,195,255,0.45)" />
    <text x="140" y="322" font-size="22">当前专注：多模态大模型 · 视觉智能 · 前后端一体化</text>
  </g>
  <g fill="none" stroke="rgba(96,195,255,0.4)" stroke-width="1.6" opacity="0.8">
    <circle cx="1010" cy="90" r="42" />
    <circle cx="1035" cy="285" r="28" />
    <path d="M960 220C990 200 1020 200 1050 220" />
  </g>
  <g fill="#36BCF7" opacity="0.85">
    <circle cx="1010" cy="90" r="6" />
    <circle cx="1035" cy="285" r="5" />
  </g>
</svg>
