<svg width="160" height="160" viewBox="0 0 160 160" fill="none" xmlns="http://www.w3.org/2000/svg">
  <defs>
    <radialGradient id="spark-glow" cx="0.5" cy="0.5" r="0.6">
      <stop offset="0" stop-color="#50E3C2" stop-opacity="0.95" />
      <stop offset="1" stop-color="#0B1623" stop-opacity="0" />
    </radialGradient>
    <linearGradient id="spark-core" x1="30" y1="30" x2="130" y2="130">
      <stop offset="0%" stop-color="#36BCF7" />
      <stop offset="100%" stop-color="#6C5BFF" />
    </linearGradient>
  </defs>
  <rect width="160" height="160" rx="28" fill="rgba(10,25,45,0.95)" stroke="rgba(80,227,194,0.35)" />
  <circle cx="80" cy="80" r="70" fill="url(#spark-glow)" />
  <g stroke="url(#spark-core)" stroke-width="4" stroke-linecap="round" fill="none">
    <path d="M80 30V12" />
    <path d="M80 148V130" />
    <path d="M30 80H12" />
    <path d="M148 80H130" />
    <path d="M48 48L36 36" />
    <path d="M112 112L124 124" />
    <path d="M48 112L36 124" />
    <path d="M112 48L124 36" />
  </g>
  <circle cx="80" cy="80" r="44" fill="rgba(15,45,80,0.85)" stroke="rgba(80,227,194,0.5)" stroke-width="3" />
  <path d="M65 95C66 80 73 60 90 65C105 69 108 92 100 104C93 114 75 112 70 101" stroke="#A7FFEB" stroke-width="5" stroke-linecap="round" />
  <circle cx="88" cy="78" r="6" fill="#FFFFFF" />
  <circle cx="70" cy="92" r="4" fill="#36BCF7" />
  <circle cx="102" cy="96" r="5" fill="#6C5BFF" />
</svg>
